<svg width="396" height="28" viewBox="0 0 396 28" fill="none" xmlns="http://www.w3.org/2000/svg">
<path d="M7.1 21.26C5.06 21.26 3.51333 20.6933 2.46 19.56C1.42 18.4133 0.9 16.56 0.9 14C0.9 11.4667 1.42667 9.62667 2.48 8.48C3.54667 7.32 5.08667 6.74 7.1 6.74C8.14 6.74 9.04667 6.87333 9.82 7.14C10.6067 7.40667 11.2533 7.83333 11.76 8.42C12.28 8.99333 12.6667 9.74 12.92 10.66C13.1733 11.58 13.3 12.6933 13.3 14C13.3 16.5333 12.7667 18.38 11.7 19.54C10.6467 20.6867 9.11333 21.26 7.1 21.26ZM7.1 18.96C7.68667 18.96 8.2 18.88 8.64 18.72C9.08 18.5467 9.44667 18.2667 9.74 17.88C10.0467 17.4933 10.2733 16.9867 10.42 16.36C10.58 15.72 10.66 14.9333 10.66 14C10.66 13.0667 10.58 12.2867 10.42 11.66C10.2733 11.02 10.0467 10.5067 9.74 10.12C9.44667 9.73333 9.08 9.46 8.64 9.3C8.2 9.12667 7.68667 9.04 7.1 9.04C6.51333 9.04 6 9.12667 5.56 9.3C5.12 9.46 4.74667 9.73333 4.44 10.12C4.14667 10.5067 3.92 11.02 3.76 11.66C3.61333 12.2867 3.54 13.0667 3.54 14C3.54 14.92 3.61333 15.7 3.76 16.34C3.92 16.9667 4.14667 17.48 4.44 17.88C4.74667 18.2667 5.12 18.5467 5.56 18.72C6.01333 18.88 6.52667 18.96 7.1 18.96ZM15.5792 10.32H18.0192V18.8H20.7792V10.32H23.2192V18.8H25.9792V10.32H28.4192V21H15.5792V10.32ZM31.1847 10.32H33.6247V16.06C33.6247 16.2467 33.618 16.4333 33.6047 16.62C33.6047 16.8067 33.598 16.9733 33.5847 17.12C33.5714 17.2933 33.5647 17.46 33.5647 17.62H33.6447C33.7114 17.46 33.7847 17.2933 33.8647 17.12C33.9314 16.9733 34.018 16.8067 34.1247 16.62C34.2314 16.42 34.3447 16.22 34.4647 16.02L37.8047 10.32H40.2247V21H37.7847V15.34C37.7847 15.1267 37.7847 14.92 37.7847 14.72C37.7847 14.52 37.7914 14.3467 37.8047 14.2C37.818 14.0267 37.8314 13.86 37.8447 13.7H37.7647C37.6847 13.86 37.6047 14.0267 37.5247 14.2C37.458 14.3467 37.3714 14.52 37.2647 14.72C37.1714 14.9067 37.0647 15.1 36.9447 15.3L33.6047 21H31.1847V10.32ZM47.6616 21.26C46.8749 21.26 46.1682 21.1533 45.5416 20.94C44.9149 20.7267 44.3816 20.36 43.9416 19.84C43.5016 19.32 43.1616 18.6267 42.9216 17.76C42.6949 16.8933 42.5816 15.8067 42.5816 14.5C42.5816 12.82 42.7016 11.46 42.9416 10.42C43.1949 9.38 43.5616 8.56 44.0416 7.96C44.5216 7.34667 45.1082 6.90667 45.8016 6.64C46.5082 6.37333 47.3082 6.18667 48.2016 6.08C49.0549 5.97333 49.7549 5.88 50.3016 5.8C50.8482 5.70667 51.3082 5.58 51.6816 5.42V7.88C51.4416 8 51.0949 8.1 50.6416 8.18C50.2016 8.26 49.5749 8.34667 48.7616 8.44C48.0949 8.52 47.5016 8.62667 46.9816 8.76C46.4616 8.88 46.0149 9.09333 45.6416 9.4C45.2816 9.69333 44.9949 10.1067 44.7816 10.64C44.5816 11.1733 44.4749 11.88 44.4616 12.76H44.5216C44.9349 12.08 45.4482 11.54 46.0616 11.14C46.6749 10.74 47.4682 10.54 48.4416 10.54C49.1882 10.54 49.8216 10.64 50.3416 10.84C50.8749 11.04 51.3082 11.3533 51.6416 11.78C51.9882 12.1933 52.2349 12.74 52.3816 13.42C52.5416 14.0867 52.6216 14.8867 52.6216 15.82C52.6216 16.78 52.5082 17.6067 52.2816 18.3C52.0549 18.98 51.7282 19.54 51.3016 19.98C50.8749 20.42 50.3549 20.7467 49.7416 20.96C49.1282 21.16 48.4349 21.26 47.6616 21.26ZM47.6616 19.06C48.4882 19.06 49.1016 18.8 49.5016 18.28C49.9016 17.76 50.1016 16.9467 50.1016 15.84C50.1016 14.6933 49.9149 13.8933 49.5416 13.44C49.1682 12.9733 48.5682 12.74 47.7416 12.74C46.8616 12.74 46.2082 13 45.7816 13.52C45.3682 14.0267 45.1616 14.7867 45.1616 15.8C45.1616 16.9067 45.3616 17.7267 45.7616 18.26C46.1616 18.7933 46.7949 19.06 47.6616 19.06ZM54.7784 10.32H57.2184V14.4H58.3384L60.9184 10.32H63.6584L60.2584 15.4L64.0184 21H61.1784L58.3384 16.54H57.2184V21H54.7784V10.32ZM68.3545 21.26C67.3145 21.26 66.5212 20.9867 65.9745 20.44C65.4412 19.8933 65.1745 19.0933 65.1745 18.04C65.1745 17.48 65.2479 16.9933 65.3945 16.58C65.5412 16.1667 65.7812 15.8267 66.1145 15.56C66.4479 15.28 66.8812 15.0733 67.4145 14.94C67.9479 14.7933 68.6012 14.72 69.3745 14.72H71.3745V14C71.3745 13.3733 71.2212 12.9333 70.9145 12.68C70.6079 12.4133 70.0412 12.28 69.2145 12.28C68.5879 12.28 67.9879 12.36 67.4145 12.52C66.8545 12.68 66.4012 12.8733 66.0545 13.1V10.7C66.4545 10.5267 66.9679 10.38 67.5945 10.26C68.2212 10.14 68.8945 10.08 69.6145 10.08C70.3879 10.08 71.0412 10.1467 71.5745 10.28C72.1212 10.4133 72.5545 10.6333 72.8745 10.94C73.2079 11.2467 73.4479 11.6467 73.5945 12.14C73.7412 12.6333 73.8145 13.24 73.8145 13.96V21H71.6145L71.5145 19.3C71.3145 19.8333 70.9545 20.2933 70.4345 20.68C69.9145 21.0667 69.2212 21.26 68.3545 21.26ZM69.2345 19.18C69.9012 19.18 70.4212 18.9867 70.7945 18.6C71.1812 18.2 71.3745 17.62 71.3745 16.86V16.28H69.6545C68.9079 16.28 68.3945 16.4067 68.1145 16.66C67.8345 16.9 67.6945 17.2867 67.6945 17.82C67.6945 18.2733 67.8145 18.6133 68.0545 18.84C68.2945 19.0667 68.6879 19.18 69.2345 19.18Z" fill="#333333"/>
<rect x="368" width="28" height="28" rx="14" fill="black" fill-opacity="0.04"/>
<path d="M377.404 8.6965C377.599 8.50123 377.916 8.50123 378.111 8.6965L382 12.5857L385.889 8.69665C386.084 8.50138 386.401 8.50138 386.596 8.69665L387.303 9.40375C387.499 9.59902 387.499 9.9156 387.303 10.1109L383.414 13.9999L387.303 17.8889C387.499 18.0841 387.499 18.4007 387.303 18.596L386.596 19.3031C386.401 19.4984 386.084 19.4984 385.889 19.3031L382 15.4141L378.111 19.3032C377.916 19.4985 377.599 19.4985 377.404 19.3032L376.697 18.5961C376.502 18.4009 376.502 18.0843 376.697 17.889L380.586 13.9999L376.697 10.1107C376.501 9.91545 376.501 9.59886 376.697 9.4036L377.404 8.6965Z" fill="#B3B3B3"/>
</svg>
